<?xml version="1.0" encoding="UTF-8"?>
<svg id="Layer_2" data-name="Layer 2" xmlns="http://www.w3.org/2000/svg" viewBox="0 0 18.08 31.65">
  <defs>
    <style>
      .cls-1 {
        fill: gold;
      }
    </style>
  </defs>
  <g id="k_copy" data-name="k copy">
    <g id="glencairn_glass" data-name="glencairn glass">
      <path class="cls-1" d="M3.06.04c-.19.03-.22.07-.22.31,0,.56-.43,3.81-.75,5.66-.29,1.72-.39,2.17-1.2,5.32C.3,13.67.1,14.77.02,16.08c-.08,1.47.13,2.92.61,4.06.32.74.71,1.32,1.4,2.03.53.54.97.89,1.65,1.28.39.24.53.32.58.42.13.22.19.56.19.95,0,.65-.17,1.13-.68,1.97-.5.82-.64,1.08-.76,1.45-.49,1.4-.01,2.54,1.24,2.96.39.14.78.19,1.75.29,1.28.14,1.88.17,3.28.17,2.36,0,3.67-.15,4.64-.56.51-.21.85-.49,1.1-.89.26-.46.28-1.22.04-1.93-.11-.33-.22-.54-.61-1.21-.76-1.27-.95-1.86-.81-2.7.04-.25.18-.6.28-.71.03-.03.25-.18.49-.31.61-.35,1.06-.68,1.52-1.13,1.04-1.01,1.58-1.96,1.89-3.27.17-.7.22-1.17.25-1.99.04-1.53-.17-2.82-.89-5.7-.99-3.86-1.2-4.98-1.72-8.98-.08-.68-.18-1.67-.18-1.9,0-.21-.07-.29-.31-.33C14.82.02,3.33-.02,3.06,0v.03ZM14.99.43c.06.08.08.43.26,2.47.19,2.28.56,4.38,1.28,7.34.9,3.7,1.07,4.67,1.08,6.12,0,.63,0,.76-.06.81-.04.04-.15.04-.67.03-3.06-.15-11.62-.17-15.53-.01l-.64.03-.03-.08c-.06-.15-.03-1.4.04-1.93.11-1,.28-1.84.79-3.98.71-2.92.86-3.66,1.08-5.02.31-1.81.5-3.8.56-5.3,0-.24.03-.43.03-.44,0,0,2.6-.03,5.76-.04,3.16,0,5.74-.03,5.74-.03.06-.06.24,0,.28.07v-.03ZM13.79,17.51c-2.91.07-7.44.07-10.08,0-3.39-.1-1.84-.18,5.27-.18,7.66,0,8.8.08,4.81.18ZM2.2,17.78c.39.03,2.04.06,3.64.07,4,.04,8.99,0,11.2-.14.36-.03.43-.01.46.03,0,.03-.01.22-.06.42-.31,1.45-1.08,2.75-2.27,3.8-.54.47-1.27,1.06-1.7,1.33-.6.4-.63.43-.49.65.07.11.07.13.01.35-.07.31-.04.81.07,1.15s.38.88.72,1.4c.75,1.15.9,1.52.93,2.13.03.43,0,.57-.21.92-.14.22-.44.49-.74.61-.26.11-.95.24-1.58.28-.32.03-.71.06-.88.08-.17.03-1,.04-1.85.06-1.42.01-1.6,0-2.15-.06-.46-.06-.64-.1-.78-.17-.21-.1-.44-.36-.44-.47,0-.15.14-.19.86-.22,1.42-.08,5,.08,5.16.22.03.03-.1.1-.33.21-.28.13-.38.19-.38.24,0,.1.15.13.49.07.5-.07.85-.18,1-.31.13-.1.14-.13.11-.24-.01-.07-.03-.18-.01-.26.03-.36.01-1.2,0-1.33-.03-.13-.01-.14.03-.08.07.08.13.38.17.92.04.44.08.53.19.51.11-.01.17-.21.17-.57,0-.25.01-.32.08-.4l.08-.1-.08-.36c-.15-.64-.68-1.56-1.1-1.88-.17-.13-.26-.1-.24.04,0,.06.04.21.07.33s.08.32.14.42c.14.31.06.58-.21.74-.31.18-2.52.43-3.73.43-.82,0-1.97-.1-2.4-.19-.14-.03-.19-.07-.25-.15-.14-.24-.07-.49.28-.83.14-.14.24-.28.24-.31,0-.1-.08-.11-.18-.03-.17.13-.44.25-.75.32-.15.03-.33.1-.42.13-.47.24-.4.78.14,1.03.28.14.92.25,1.56.31.76.06.78.07.18.14-.72.1-1.35.32-1.58.6-.07.08-.15.15-.18.15-.07,0-.29-.38-.42-.7-.14-.38-.21-.53-.25-.53-.03,0-.06.15-.08.44v.13l-.06-.11c-.11-.26-.17-.35-.21-.35-.07,0-.13.14-.1.32.01.14,0,.17-.07.22-.07.06-.08.08-.06.22.04.33.31.68.53.68.07,0,.57.46.57.53,0,.1-.54-.04-.82-.21-.22-.13-.46-.39-.57-.65-.1-.19-.1-.25-.1-.67s0-.49.1-.74c.17-.43.31-.72.68-1.29.43-.67.71-1.2.83-1.57.13-.36.15-.88.1-1.2-.04-.19-.04-.24.01-.33.06-.13.07-.25.03-.36-.01-.03-.22-.19-.46-.35-.72-.49-.82-.61-.26-.33.5.25,1,.4,1,.31,0-.06-.11-.14-.57-.4-.7-.42-1.07-.7-1.57-1.2-.79-.79-1.31-1.57-1.53-2.35-.08-.26-.1-.4-.1-.71,0-.21,0-.4-.01-.43-.03-.1-.21-.18-.42-.18-.31,0-.32.07-.15.82.11.51.24.88.47,1.33.18.36.04.19-.22-.26-.25-.44-.44-.93-.58-1.47-.11-.43-.14-.64-.08-.7.01-.01.17-.01.33,0s.64.04,1.04.06v.06ZM12.56,29.56c0,.13-.04.21-.1.21s-.07-.13-.01-.22.11-.08.11.01Z"/>
      <path class="cls-1" d="M3.33.73s-.04.36-.06.71c-.1,2.82-.56,6.05-1.27,8.76-.11.43-.32,1.27-.47,1.88-.39,1.52-.54,2.25-.65,3.24-.06.42-.06,1.49,0,1.63.04.11.15.14.21.06.03-.03.04-.29.07-.6.07-1.67.19-2.36.89-5.13.65-2.6.97-4.31,1.22-6.48.18-1.57.32-3.89.25-4.03-.06-.1-.14-.1-.18-.01h-.01Z"/>
      <path class="cls-1" d="M2.48,17.96c-.07.07-.07.1-.03.38.13.86.61,1.78,1.32,2.49.26.26.82.71.85.67,0,0-.13-.17-.31-.35-.61-.63-1.04-1.29-1.29-1.97-.06-.15-.14-.49-.19-.74-.06-.25-.11-.49-.14-.51-.06-.07-.15-.06-.24.03h.03Z"/>
      <path class="cls-1" d="M16.98,18.03s-.1.21-.15.42c-.14.49-.29.85-.54,1.29-.89,1.57-2.95,3.29-4.57,3.81-.49.15-.64.19-1.24.26-.28.04-.53.08-.54.1-.14.14.78.21,1.35.1,1.28-.25,2.34-.88,3.64-2.11.9-.85,1.45-1.54,1.82-2.29.43-.88.57-1.79.24-1.58h0Z"/>
      <path class="cls-1" d="M1.95,18.14c-.1.18.22,1.07.39,1.07.07,0,.07-.1,0-.38-.03-.13-.07-.33-.08-.49-.02-.18-.06-.27-.14-.28-.08,0-.13,0-.15.07h-.01Z"/>
      <path class="cls-1" d="M16.35,18.11s-.06.13-.08.24c-.11.47-.44,1.22-.75,1.72-.43.7-1.14,1.46-1.84,1.97-.61.44-.63.47-.63.53,0,.07.1.11.19.06.17-.07.97-.71,1.32-1.03.54-.5,1-1.08,1.32-1.65.29-.5.67-1.56.64-1.77,0-.1-.11-.13-.17-.06h-.01Z"/>
      <path class="cls-1" d="M2.35,19.55c-.13.22.25.89.79,1.42.31.29.56.46.67.42.08-.03.03-.14-.33-.51-.32-.33-.67-.82-.76-1.08-.07-.17-.19-.32-.26-.32-.03,0-.07.03-.08.08h-.01Z"/>
      <path class="cls-1" d="M4.3,21.67c-.03.08.04.19.31.39.42.32,1.5.85,1.67.81.08-.01-.08-.14-.56-.42-.21-.13-.51-.32-.68-.44-.53-.39-.68-.46-.72-.33h-.01Z"/>
      <path class="cls-1" d="M7.27,23.21s.04.04.1.04.08-.01.07-.04c0-.03-.06-.04-.1-.04s-.07.01-.07.04Z"/>
      <path class="cls-1" d="M5.95,24c-.38.38,1.32.7,3.39.65.5,0,1.1-.04,1.33-.08.97-.13,1.79-.33,1.77-.46-.01-.08-.24-.07-1.74.08-.58.07-2.21.07-2.78.01-.21-.03-.64-.08-.96-.15-.61-.13-.95-.14-1.03-.07h.01Z"/>
      <path class="cls-1" d="M11.92,24.87c-.25.13-.61.19-1.18.24-.25.01-.49.06-.53.07-.1.06-.26.04-.54-.03-.18-.04-.26-.06-.33-.03-.1.04-.11.13-.04.21.07.07.97.21,1.42.24.32,0,.32.01.96.33.36.18.67.32.7.32.1,0,.1-.07.03-.35-.04-.15-.08-.43-.1-.63-.03-.36-.06-.47-.14-.47-.03,0-.13.04-.24.1Z"/>
      <path class="cls-1" d="M5.83,25.03c-.01.19,0,.26.06.4.1.21.08.29-.03.44-.06.07-.1.18-.1.24,0,.08-.03.13-.08.15-.07.03-.08.06-.07.24,0,.14,0,.25-.06.35-.06.13-.06.14,0,.19.06.06.07.04.28-.07.51-.29.82-.56.82-.74,0-.04.04-.13.08-.18.1-.13.22-.47.19-.56-.03-.1-.42-.49-.6-.58-.08-.04-.24-.1-.32-.11l-.17-.03-.03.24h.01Z"/>
    </g>
  </g>
</svg>