<?xml version="1.0" encoding="UTF-8"?>
<svg id="Layer_2" data-name="Layer 2" xmlns="http://www.w3.org/2000/svg" viewBox="0 0 276.02 308.45">
  <defs>
    <style>
      .cls-1 {
        fill: #8d8a7b;
      }
    </style>
  </defs>
  <g id="k_copy" data-name="k copy">
    <g id="large-panel-middle">
      <path id="large-panel-middle-2" data-name="large-panel-middle" class="cls-1" d="M276.02,285.67h-1.08c-5.28,0-9.84,1.89-13.67,5.67-3.84,3.78-5.76,8.37-5.76,13.76v.9l-234.25,2.45v-.9c0-5.4-1.92-9.98-5.76-13.76-3.84-3.78-8.39-5.67-13.67-5.67H.76L0,22.89l1.84.06c5.28,0,9.83-1.92,13.67-5.76,3.84-3.84,5.76-8.4,5.76-13.67v-1.08L255.52,0v1.08c0,5.28,1.92,9.83,5.76,13.67s8.39,5.76,13.67,5.76h1.08v265.16ZM2.92,74.17v180.9M2.92,68.79v5.38M2.92,255.08v31.06c5.51.12,10.22,2.16,14.12,6.12,3.9,3.96,5.97,8.69,6.21,14.21l230.29-2.45c.24-5.52,2.34-10.26,6.3-14.21,3.96-3.96,8.7-6,14.21-6.12V22.49c-5.52-.24-10.25-2.31-14.21-6.21-3.96-3.9-6.06-8.61-6.3-14.12L23.24,4.61c-.24,5.51-2.31,10.22-6.21,14.12-3.9,3.9-8.61,5.96-14.12,6.21v43.86M7.95,29.25c4.79-1.08,8.99-3.39,12.59-6.93,3.6-3.54,5.94-7.77,7.02-12.68l221.66-2.45c1.2,4.92,3.57,9.14,7.11,12.68,3.54,3.54,7.71,5.85,12.5,6.93v252.39c-4.8,1.2-8.97,3.57-12.5,7.11-3.54,3.54-5.91,7.76-7.11,12.68l-221.66,2.45c-1.08-4.8-3.39-9-6.93-12.59-3.54-3.6-7.77-6-12.68-7.2V29.25Z"/>
    </g>
  </g>
</svg>