<?xml version="1.0" encoding="UTF-8"?>
<svg id="Layer_2" data-name="Layer 2" xmlns="http://www.w3.org/2000/svg" viewBox="0 0 295.99 308.45">
  <defs>
    <style>
      .cls-1 {
        fill: #8d8a7b;
      }
    </style>
  </defs>
  <g id="k_copy" data-name="k copy">
    <g id="large-panel-right">
      <path id="large-panel-right-2" data-name="large-panel-right" class="cls-1" d="M0,22.89l1.84.06c5.28,0,9.83-1.92,13.67-5.76,3.84-3.84,5.76-8.4,5.76-13.67v-1.08L255.52,0v1.08c0,5.28,1.92,9.83,5.76,13.67s8.39,5.76,13.67,5.76h1.08v59.19c.96-1.68,2.4-2.76,4.32-3.24,1.92-.48,3.6-.54,5.04-.18l1.98.54c-5.04,2.76-7.56,9.29-7.56,19.61s2.82,23.09,8.45,36.88c5.16,1.56,7.74,5.33,7.74,11.33,0,3.72-3.21,8.48-9.62,14.3-6.42,5.82-9.87,9.92-10.34,12.32v3.24c.48,2.52,1.83,3.6,4.05,3.24,2.22-.36,3.33-1.8,3.33-4.32,1.8.24,2.7,1.38,2.7,3.42,0,1.92-.72,3.39-2.16,4.41-1.44,1.02-3,1.29-4.68.81,1.2,1.56,2.82,3.06,4.86,4.5,1.68.96,3.21,1.5,4.59,1.62,1.38.12,2.31,0,2.79-.36l.9-.72c0,4.56-1.56,6.84-4.68,6.84s-6.78-3.96-11.33-11.87v5.04c3.12,9.35,6.59,15.23,10.43,17.63,1.92.96,3.48,1.32,4.68,1.08,1.2-.24,2.16-.72,2.88-1.44l.9-1.26c0,6-1.98,8.99-5.94,8.99-2.04,0-4.14-1.65-6.3-4.95-2.16-3.3-3.78-6.57-4.86-9.8l-1.8-4.86v19.07c0,2.64.48,4.77,1.44,6.39.96,1.62,1.92,2.61,2.88,2.97l1.44.36c-2.64,3.6-4.68,8.99-6.12,16.19v48.21h-1.08c-5.28,0-9.84,1.89-13.67,5.67-3.84,3.78-5.76,8.37-5.76,13.76v.9l-234.25,2.45v-.9c0-5.4-1.92-9.98-5.76-13.76-3.84-3.78-8.39-5.67-13.67-5.67H.76L0,22.89ZM2.92,74.17v180.9M2.92,68.79v5.38M2.92,255.08v31.06c5.51.12,10.22,2.16,14.12,6.12,3.9,3.96,5.97,8.69,6.21,14.21l230.29-2.45c.24-5.52,2.34-10.26,6.3-14.21,3.96-3.96,8.7-6,14.21-6.12V22.49c-5.52-.24-10.25-2.31-14.21-6.21-3.96-3.9-6.06-8.61-6.3-14.12L23.24,4.61c-.24,5.51-2.31,10.22-6.21,14.12-3.9,3.9-8.61,5.96-14.12,6.21v43.86M7.95,29.25c4.79-1.08,8.99-3.39,12.59-6.93,3.6-3.54,5.94-7.77,7.02-12.68l221.66-2.45c1.2,4.92,3.57,9.14,7.11,12.68,3.54,3.54,7.71,5.85,12.5,6.93v252.39c-4.8,1.2-8.97,3.57-12.5,7.11-3.54,3.54-5.91,7.76-7.11,12.68l-221.66,2.45c-1.08-4.8-3.39-9-6.93-12.59-3.54-3.6-7.77-6-12.68-7.2V29.25ZM276.02,98.76v38.14c2.52-3.24,5.94-4.56,10.25-3.96-4.92-11.63-8.34-23.03-10.25-34.18ZM293.11,144.82c0-4.68-1.8-7.44-5.4-8.28-3-.84-5.34.06-7.02,2.7-.6,1.2-.9,2.52-.9,3.96,0,1.8.33,3.39.99,4.77.66,1.38,1.35,2.31,2.07,2.79l1.08.72c-3.36.84-6,.18-7.91-1.98v16.91c.96-1.68,4.05-4.83,9.26-9.44,5.22-4.62,7.83-8.67,7.83-12.14Z"/>
    </g>
  </g>
</svg>